<svg xmlns="http://www.w3.org/2000/svg" viewBox="0 0 64 64" fill="none">
  <rect width="64" height="64" rx="14" fill="#1A1A1A" stroke="#C4AB7F" stroke-width="2"/>
  <g transform="translate(6, 17) scale(0.23)" fill="#C4AB7F" fill-rule="evenodd">
    <path d="M 82 0 L 84 0 L 84 1 L 146 1 L 146 2 L 148 2 L 148 3 L 149 3 L 149 4 L 150 4 L 150 5 L 152 5 L 152 6 L 153 6 L 153 7 L 154 7 L 154 8 L 155 8 L 155 9 L 157 9 L 157 10 L 158 10 L 158 11 L 159 11 L 159 12 L 160 12 L 160 13 L 162 13 L 162 14 L 163 14 L 163 15 L 164 15 L 164 16 L 165 16 L 165 17 L 167 17 L 167 18 L 168 18 L 168 19 L 169 19 L 169 20 L 170 20 L 170 21 L 172 21 L 172 22 L 173 22 L 173 23 L 174 23 L 174 24 L 175 24 L 175 25 L 177 25 L 177 26 L 178 26 L 178 27 L 179 27 L 179 28 L 180 28 L 180 29 L 182 29 L 182 30 L 183 30 L 183 31 L 184 31 L 184 32 L 186 32 L 186 33 L 187 33 L 187 34 L 188 34 L 188 35 L 189 35 L 189 36 L 191 36 L 191 37 L 192 37 L 192 38 L 193 38 L 193 39 L 194 39 L 194 40 L 196 40 L 196 41 L 197 41 L 197 42 L 198 42 L 198 43 L 199 43 L 199 44 L 201 44 L 201 45 L 202 45 L 202 46 L 203 46 L 203 47 L 204 47 L 204 48 L 206 48 L 206 49 L 207 49 L 207 50 L 208 50 L 208 51 L 209 51 L 209 52 L 211 52 L 211 53 L 212 53 L 212 54 L 213 54 L 213 55 L 215 55 L 215 56 L 216 56 L 216 57 L 217 57 L 217 58 L 218 58 L 218 59 L 220 59 L 220 60 L 221 60 L 221 61 L 222 61 L 222 62 L 158 62 L 158 61 L 156 61 L 156 60 L 155 60 L 155 59 L 154 59 L 154 58 L 152 58 L 152 57 L 151 57 L 151 56 L 150 56 L 150 55 L 149 55 L 149 54 L 147 54 L 147 53 L 146 53 L 146 52 L 145 52 L 145 51 L 144 51 L 144 50 L 142 50 L 142 49 L 141 49 L 141 48 L 140 48 L 140 47 L 139 47 L 139 46 L 137 46 L 137 45 L 136 45 L 136 44 L 135 44 L 135 43 L 134 43 L 134 42 L 132 42 L 132 41 L 131 41 L 131 40 L 130 40 L 130 39 L 129 39 L 129 38 L 127 38 L 127 37 L 126 37 L 126 36 L 125 36 L 125 35 L 124 35 L 124 34 L 122 34 L 122 33 L 121 33 L 121 32 L 120 32 L 120 31 L 118 31 L 118 30 L 117 30 L 117 29 L 116 29 L 116 28 L 115 28 L 115 27 L 113 27 L 113 26 L 112 26 L 112 25 L 111 25 L 111 24 L 110 24 L 110 23 L 108 23 L 108 22 L 107 22 L 107 21 L 106 21 L 106 20 L 105 20 L 105 19 L 103 19 L 103 18 L 102 18 L 102 17 L 101 17 L 101 16 L 100 16 L 100 15 L 98 15 L 98 14 L 97 14 L 97 13 L 96 13 L 96 12 L 95 12 L 95 11 L 93 11 L 93 10 L 92 10 L 92 9 L 91 9 L 91 8 L 89 8 L 89 7 L 88 7 L 88 6 L 87 6 L 87 5 L 86 5 L 86 4 L 84 4 L 84 3 L 81 3 L 81 4 L 80 4 L 80 5 L 79 5 L 79 6 L 78 6 L 78 7 L 76 7 L 76 8 L 75 8 L 75 9 L 74 9 L 74 10 L 73 10 L 73 11 L 71 11 L 71 12 L 70 12 L 70 13 L 69 13 L 69 14 L 68 14 L 68 15 L 66 15 L 66 16 L 65 16 L 65 17 L 64 17 L 64 18 L 63 18 L 63 19 L 61 19 L 61 20 L 60 20 L 60 21 L 59 21 L 59 22 L 58 22 L 58 23 L 56 23 L 56 24 L 55 24 L 55 25 L 54 25 L 54 26 L 53 26 L 53 27 L 51 27 L 51 28 L 50 28 L 50 29 L 49 29 L 49 30 L 47 30 L 47 31 L 46 31 L 46 32 L 45 32 L 45 33 L 44 33 L 44 34 L 42 34 L 42 35 L 41 35 L 41 36 L 40 36 L 40 37 L 39 37 L 39 38 L 37 38 L 37 39 L 36 39 L 36 40 L 35 40 L 35 41 L 34 41 L 34 42 L 32 42 L 32 43 L 31 43 L 31 44 L 30 44 L 30 45 L 29 45 L 29 46 L 27 46 L 27 47 L 26 47 L 26 48 L 25 48 L 25 49 L 24 49 L 24 50 L 22 50 L 22 51 L 21 51 L 21 52 L 20 52 L 20 53 L 18 53 L 18 54 L 17 54 L 17 55 L 16 55 L 16 56 L 15 56 L 15 57 L 13 57 L 13 58 L 12 58 L 12 59 L 11 59 L 11 60 L 10 60 L 10 61 L 8 61 L 8 62 L 7 62 L 7 63 L 5 63 L 5 61 L 7 61 L 7 60 L 8 60 L 8 59 L 9 59 L 9 58 L 10 58 L 10 57 L 12 57 L 12 56 L 13 56 L 13 55 L 14 55 L 14 54 L 15 54 L 15 53 L 17 53 L 17 52 L 18 52 L 18 51 L 19 51 L 19 50 L 20 50 L 20 49 L 22 49 L 22 48 L 23 48 L 23 47 L 24 47 L 24 46 L 25 46 L 25 45 L 27 45 L 27 44 L 28 44 L 28 43 L 29 43 L 29 42 L 31 42 L 31 41 L 32 41 L 32 40 L 33 40 L 33 39 L 34 39 L 34 10 L 47 10 L 47 28 L 48 28 L 48 27 L 49 27 L 49 26 L 51 26 L 51 25 L 52 25 L 52 24 L 53 24 L 53 23 L 54 23 L 54 22 L 56 22 L 56 21 L 57 21 L 57 20 L 58 20 L 58 19 L 59 19 L 59 18 L 61 18 L 61 17 L 62 17 L 62 16 L 63 16 L 63 15 L 65 15 L 65 14 L 66 14 L 66 13 L 67 13 L 67 12 L 68 12 L 68 11 L 70 11 L 70 10 L 71 10 L 71 9 L 72 9 L 72 8 L 73 8 L 73 7 L 75 7 L 75 6 L 76 6 L 76 5 L 77 5 L 77 4 L 78 4 L 78 3 L 80 3 L 80 2 L 81 2 L 81 1 L 82 1 Z M 66 30 L 79 30 L 79 42 L 66 42 Z M 84 30 L 97 30 L 97 42 L 84 42 Z M 66 47 L 79 47 L 79 60 L 66 60 Z M 84 47 L 97 47 L 97 60 L 84 60 Z" />
  </g>
</svg>